<svg version="1.2" xmlns="http://www.w3.org/2000/svg" viewBox="0 0 142 67" width="142" height="67">
	<title>aquitem-svg</title>
	<style>
		.s0 { fill: #ffffff } 
	</style>
	<g id="Calque_2-2">
		<g id="Layer">
			<g id="Layer">
				<path id="Layer" fill-rule="evenodd" class="s0" d="m4.9 58.7l-1.1 2.6c-0.1 0.4-0.4 0.9-0.4 1.2 0 0.2 0.1 0.3 0.5 0.3v0.4h-3.9v-0.4c0.5 0 0.7-0.1 1.3-1.5l5.8-12.9c0.3-0.8 0.5-1 0.5-1.3 0-0.2-0.3-0.4-0.6-0.4v-0.3h4.7v0.3c-0.4 0-0.5 0.2-0.5 0.4 0 0.3 0.2 0.6 0.6 1.4l6.1 12.7c0.7 1.5 0.8 1.6 1.5 1.6v0.4h-4.4v-0.4c0.5 0 0.6-0.2 0.6-0.5 0-0.1-0.1-0.3-0.4-1l-1.2-2.6h-9.1zm1-2.1h7l-3.6-7.6c0 0-3.4 7.6-3.4 7.6z"/>
				<path id="Layer" fill-rule="evenodd" class="s0" d="m37.3 66l-0.2-0.2c0.2-0.2 0.2-0.3 0.2-0.5 0-0.2-0.4-0.9-1.9-2.4-1 0.3-2.2 0.5-3.5 0.5-5.5 0-9.6-3.1-9.6-8.6 0-5.6 4.1-8.6 9.6-8.6 5.6 0 9.7 3 9.7 8.6 0 3.3-1.5 5.7-3.9 7.2 1 1 1.4 1.6 1.9 1.6q0.1 0 0.3-0.1l0.2 0.2c0 0-2.8 2.4-2.8 2.3zm-1.3-5.8c1.8-1 2.8-2.9 2.8-5.4 0-4-2.6-6.4-6.9-6.4-4.3 0-6.8 2.4-6.8 6.4 0 4 2.5 6.4 6.8 6.4q0.9 0 1.7-0.1c-1.7-1.6-1.9-2.1-3.1-2.1-0.2 0-0.3 0.1-0.4 0.1q-0.3 0-0.3-0.2c0-0.5 0.7-0.9 1.9-0.9 2 0 3.1 1 4.3 2.2z"/>
				<path id="Layer" class="s0" d="m46.9 47.5c0-0.4-0.1-0.8-0.7-0.8v-0.3h4.2v0.4c-0.6 0-0.8 0.3-0.8 0.7v10.3c0 2.4 1.9 3.3 5.4 3.3 3.5 0 5.4-0.9 5.4-3.3v-10.3c0-0.4-0.1-0.8-0.7-0.8v-0.3h4.2v0.4c-0.6 0-0.8 0.3-0.8 0.7v9.6c0 5-3.1 6.3-8.1 6.3-5 0-8.1-1.3-8.1-6.3v-9.6z"/>
				<path id="Layer" class="s0" d="m69.8 63.2v-0.4c0.6 0 0.8-0.3 0.8-0.8v-14.5c0-0.4-0.2-0.8-0.8-0.8v-0.3h4.2v0.3c-0.6 0-0.8 0.4-0.8 0.8v14.5c0 0.5 0.2 0.8 0.8 0.8v0.4z"/>
				<path id="Layer" class="s0" d="m84.9 63.2v-0.4c0.6 0 0.8-0.3 0.8-0.8v-13.5h-5.4c-0.8 0-1.1 0.2-1.1 0.8h-0.4v-3.8h0.4q0 0.8 1.1 0.9h13.4q1.1-0.1 1.1-0.9h0.4v3.8h-0.4c0-0.6-0.3-0.8-1.1-0.8h-5.4v13.5c0 0.5 0.2 0.8 0.8 0.8v0.4z"/>
				<path id="Layer" class="s0" d="m100.7 47.5c0-0.4-0.2-0.8-0.8-0.8v-0.3h13.4c1.1 0 1.3-0.2 1.3-0.7h0.4v3.7h-0.4c0-0.6-0.3-0.9-1.2-0.9h-10v5h6.5c0.8 0 1.3-0.2 1.3-0.9h0.4v3.9h-0.4q0-0.5-0.3-0.7-0.3-0.2-1-0.2h-6.5v5.5h10.7c0.9 0 1.3-0.3 1.3-1.1h0.4v3.9h-0.4c0-0.5-0.3-0.7-1.1-0.7h-14.4v-0.4c0.6 0 0.8-0.3 0.8-0.8 0 0 0-14.5 0-14.5z"/>
				<path id="Layer" class="s0" d="m121.3 63.2v-0.4c0.7 0 0.8-0.3 0.8-0.8v-14.5c0-0.4-0.1-0.8-0.9-0.8v-0.3h5.4v0.3c-0.5 0-0.7 0.2-0.7 0.5 0 0.1 0 0.2 0.1 0.3l5.2 10.3 5.4-10.3c0.1-0.1 0.2-0.2 0.2-0.4 0-0.2-0.3-0.3-0.8-0.3v-0.4h5.7v0.4c-0.7 0-0.9 0.3-0.9 0.7v14.6c0 0.4 0.2 0.7 0.9 0.7v0.4h-4.5v-0.4c0.8 0 0.9-0.3 0.9-0.7v-12.7h-0.1l-6.8 13.5-6.8-13.5h-0.1v12.7c0 0.4 0.2 0.7 0.8 0.7v0.4c0 0-3.8 0-3.8 0z"/>
			</g>
			<path id="Layer" fill-rule="evenodd" class="s0" d="m88.8 9.4v15.1c0 5.1-4.2 9.3-9.3 9.3h-15.1c-5.2 0-9.4-4.2-9.4-9.3v-15.1c0-5.2 4.2-9.4 9.4-9.4h15.1c5.1 0 9.3 4.2 9.3 9.4zm-3.6 15c0-3.1-2.6-5.7-5.7-5.7h-15.1c-2.2 0-4.2-0.7-5.8-1.9v7.6c0 3.2 2.6 5.8 5.8 5.8h15.1c3.1 0 5.7-2.6 5.7-5.8zm0-15c0-3.2-2.6-5.8-5.7-5.8h-15.1c-3.2 0-5.8 2.6-5.8 5.8 0 3.1 2.6 5.7 5.8 5.7h15.1c2.1 0 4.1 0.7 5.7 1.9z"/>
		</g>
	</g>
</svg>