<svg version="1.0" xmlns="http://www.w3.org/2000/svg"     width="225.000000pt" height="225.000000pt" viewBox="0 0 225.000000 225.000000"     preserveAspectRatio="xMidYMid meet">    <g transform="translate(0.000000,225.000000) scale(0.100000,-0.100000)"       fill="#000000" stroke="none">        <path d="M660 2070 c-229 -62 -393 -218 -467 -445 -22 -67 -26 -98 -26 -195 0-97 4 -128 26 -195 136 -417 620 -593 986 -359 l73 47 81 -81 c77 -78 80 -8264 -100 -9 -10 -17 -27 -17 -38 0 -27 506 -530 543 -539 97 -24 186 65 162162 -8 34 -499 531 -533 540 -14 3 -30 -1 -40 -11 -17 -14 -24 -10 -101 68l-83 83 40 57 c141 200 149 486 20 704 -42 72 -158 188 -230 230 -99 59 -18984 -313 88 -88 3 -125 0 -185 -16z m272 -101 c203 -42 385 -224 427 -427 58-280 -111 -554 -393 -640 -71 -21 -216 -20 -291 2 -94 28 -175 76 -240 142-219 221 -212 573 17 787 129 121 308 172 480 136z"/>        <path d="M518 1742 c-24 -5 -82 -86 -109 -152 -29 -69 -34 -245 -9 -295 29-58 120 -37 106 24 -29 120 -12 220 49 306 19 28 35 60 35 71 0 32 -36 55 -7246z"/>    </g></svg>